<svg width="304.2360676905594" height="344.9541809082031" viewBox="0 0 234.375 265.74310128341455"
  class="looka-1j8o68f">
  <defs id="SvgjsDefs2245"></defs>
  <g id="SvgjsG2246" featurekey="rootContainer"
    transform="matrix(4.725301111045653,0,0,4.725301111045653,0.0000347689931040783,0.019721259814305742)"
    fill="#511e78">
    <path xmlns="http://www.w3.org/2000/svg"
      d="M23.11 55.78L1.69 43.41A3.39 3.39 0 0 1 0 40.48V15.75a3.39 3.39 0 0 1 1.69-2.94L23.11.45a3.39 3.39 0 0 1 3.39 0l21.41 12.37a3.39 3.39 0 0 1 1.69 2.94v24.72a3.39 3.39 0 0 1-1.69 2.94L26.5 55.78a3.39 3.39 0 0 1-3.39 0z">
    </path>
  </g>
  <g id="SvgjsG2247" featurekey="symbolFeature-0"
    transform="matrix(0.7398895441792236,0,0,0.7398895441792236,79.78266177416111,62.465525833644904)" fill="#fcb2bf">
    <path xmlns="http://www.w3.org/2000/svg"
      d="M48.3,88.1c-8.5,0-16.7-3.7-22.3-10.6c-4.4-5.4-8.3-10-11.6-13.8c-3.7-4.2-5.3-9.7-4.4-15.2c0.9-5.5,4.1-10.3,9-13.1h0  l39-22.7c5.3-3.1,11.7-3.3,17.2-0.8c5.5,2.6,9.4,7.7,10.4,13.7l5,30.4c1.3,7.9-2.6,15.7-9.7,19.4c-5.1,2.7-12,6-20.4,9.9  C56.6,87.2,52.4,88.1,48.3,88.1z M20.9,38.8c-3.8,2.2-6.3,5.9-7,10.2c-0.7,4.3,0.6,8.7,3.5,11.9c3.4,3.8,7.3,8.5,11.7,13.9  c7.2,8.8,19.4,11.6,29.7,6.8c8.3-3.9,15.1-7.2,20.2-9.9c5.6-2.9,8.6-9,7.6-15.2l-5-30.4c-0.8-4.8-3.8-8.7-8.1-10.7  c-4.4-2.1-9.3-1.8-13.5,0.6L20.9,38.8L20.9,38.8z">
    </path>
  </g>
  <g id="SvgjsG2248" featurekey="nameFeature-0"
    transform="matrix(1.6719537430213016,0,0,1.6719537430213016,37.22440191817846,128.89240960485586)" fill="#fcb2bf">
    <path
      d="M2.8571 40 l0 -24.286 l4.2857 -4.2857 l16.571 0 l4.2857 4.2857 l0 24.286 l-7.4286 0 l0 -8 l-10.286 0 l0 8 l-7.4286 0 z M10.286 25.714 l10.286 0 l0 -8 l-10.286 0 l0 8 z M60.28528571428572 15.713999999999999 l0 10 l-4.2857 4.2857 l4.2857 6.5714 l0 3.4286 l-6.8571 0 l-5.9429 -9.7143 l-5.4857 0 l0 9.7143 l-7.4286 0 l0 -28.571 l21.429 0 z M52.857285714285716 24 l0 -6.2857 l-10.857 0 l0 6.2857 l10.857 0 z M84.857 17.714 l-10.571 0 l0 4.8571 l14 0 l4.2857 4.2857 l0 8.8571 l-4.2857 4.2857 l-17.143 0 l-4.2857 -4.2857 l0 -4.2857 l5.4286 0 l2.2857 2.2857 l10.571 0 l0 -4.8571 l-14 0 l-4.2857 -4.2857 l0 -8.8571 l4.2857 -4.2857 l17.143 0 l4.2857 4.2857 l0 4.2857 l-5.4286 0 z">
    </path>
  </g>
</svg>